<svg xmlns="http://www.w3.org/2000/svg" xmlns:xlink="http://www.w3.org/1999/xlink" width="103" height="103" viewBox="0 0 103 103">
  <defs>
    <filter id="Trazado_982547" x="0" y="0" width="103" height="103" filterUnits="userSpaceOnUse">
      <feOffset dy="3" input="SourceAlpha"/>
      <feGaussianBlur stdDeviation="3" result="blur"/>
      <feFlood flood-opacity="0.161"/>
      <feComposite operator="in" in2="blur"/>
      <feComposite in="SourceGraphic"/>
    </filter>
  </defs>
  <g id="Grupo_1208591" data-name="Grupo 1208591" transform="translate(-611 -5922.739)">
    <g id="Grupo_1208304" data-name="Grupo 1208304" transform="translate(0 -2637.512)">
      <g id="Grupo_1207589" data-name="Grupo 1207589" transform="translate(0 4632.751)">
        <g id="Grupo_1207296" data-name="Grupo 1207296" transform="translate(0 3183.5)">
          <g id="Grupo_1202210" data-name="Grupo 1202210" transform="translate(340 -126.414)">
            <g id="Grupo_1174813" data-name="Grupo 1174813" transform="translate(280 876.414)">
              <g id="Grupo_1201680" data-name="Grupo 1201680">
                <g id="Grupo_1201330" data-name="Grupo 1201330">
                  <g id="Grupo_1172010" data-name="Grupo 1172010">
                    <g id="Grupo_1171046" data-name="Grupo 1171046">
                      <g id="Grupo_1148525" data-name="Grupo 1148525">
                        <g transform="matrix(1, 0, 0, 1, -9, -6)" filter="url(#Trazado_982547)">
                          <g id="Trazado_982547-2" data-name="Trazado 982547" transform="translate(9 6)" fill="#e9f9fd">
                            <path d="M 42.5 83.5 C 36.96437835693359 83.5 31.59512901306152 82.41617584228516 26.54141235351562 80.27863311767578 C 21.65934181213379 78.21369171142578 17.27447128295898 75.25723266601562 13.50862312316895 71.49137878417969 C 9.742764472961426 67.72553253173828 6.786305904388428 63.34066009521484 4.721364498138428 58.45858764648438 C 2.583823442459106 53.40486907958984 1.5 48.03562164306641 1.5 42.5 C 1.5 36.96437835693359 2.583823442459106 31.59512901306152 4.721364498138428 26.54141235351562 C 6.786305904388428 21.65934181213379 9.742764472961426 17.27448272705078 13.50862312316895 13.50862312316895 C 17.27447128295898 9.742776870727539 21.65934181213379 6.786305904388428 26.54141235351562 4.721364498138428 C 31.59512901306152 2.583823442459106 36.96437835693359 1.5 42.5 1.5 C 48.03562164306641 1.5 53.40486907958984 2.583823442459106 58.45858764648438 4.721364498138428 C 63.34066009521484 6.786305904388428 67.72553253173828 9.742776870727539 71.49137878417969 13.50862312316895 C 75.25723266601562 17.27448272705078 78.21369171142578 21.65934181213379 80.27863311767578 26.54141235351562 C 82.41617584228516 31.59512901306152 83.5 36.96437835693359 83.5 42.5 C 83.5 48.03562164306641 82.41617584228516 53.40486907958984 80.27863311767578 58.45858764648438 C 78.21369171142578 63.34066009521484 75.25723266601562 67.72553253173828 71.49137878417969 71.49137878417969 C 67.72553253173828 75.25723266601562 63.34066009521484 78.21369171142578 58.45858764648438 80.27863311767578 C 53.40486907958984 82.41617584228516 48.03562164306641 83.5 42.5 83.5 Z" stroke="none"/>
                            <path d="M 42.5 3 C 37.16621398925781 3 31.99356079101562 4.043960571289062 27.125732421875 6.102882385253906 C 22.42246627807617 8.092185974121094 18.19785308837891 10.94070434570312 14.56928253173828 14.56928253173828 C 10.94070434570312 18.19785308837891 8.092185974121094 22.42246627807617 6.102882385253906 27.125732421875 C 4.043960571289062 31.99356079101562 3 37.16621398925781 3 42.5 C 3 47.83378601074219 4.043960571289062 53.00643920898438 6.102882385253906 57.874267578125 C 8.092185974121094 62.57753372192383 10.94070434570312 66.80214691162109 14.56928253173828 70.43071746826172 C 18.19785308837891 74.05929565429688 22.42246627807617 76.90781402587891 27.125732421875 78.89711761474609 C 31.99356079101562 80.95603942871094 37.16621398925781 82 42.5 82 C 47.83378601074219 82 53.00643920898438 80.95603942871094 57.874267578125 78.89711761474609 C 62.57753372192383 76.90781402587891 66.80214691162109 74.05929565429688 70.43071746826172 70.43071746826172 C 74.05929565429688 66.80214691162109 76.90781402587891 62.57753372192383 78.89711761474609 57.874267578125 C 80.95603942871094 53.00643920898438 82 47.83378601074219 82 42.5 C 82 37.16621398925781 80.95603942871094 31.99356079101562 78.89711761474609 27.125732421875 C 76.90781402587891 22.42246627807617 74.05929565429688 18.19785308837891 70.43071746826172 14.56928253173828 C 66.80214691162109 10.94070434570312 62.57753372192383 8.092185974121094 57.874267578125 6.102882385253906 C 53.00643920898438 4.043960571289062 47.83378601074219 3 42.5 3 M 42.5 0 C 65.97210693359375 0 85 19.02789306640625 85 42.5 C 85 65.97210693359375 65.97210693359375 85 42.5 85 C 19.02789306640625 85 0 65.97210693359375 0 42.5 C 0 19.02789306640625 19.02789306640625 0 42.5 0 Z" stroke="none" fill="#36ceef"/>
                          </g>
                        </g>
                      </g>
                    </g>
                  </g>
                </g>
              </g>
            </g>
          </g>
        </g>
      </g>
    </g>
    <g id="media-monitor-screen-Digital_Marketing" data-name="media-monitor-screen-Digital Marketing" transform="translate(632.016 5942.517)">
      <path id="Trazado_1054473" data-name="Trazado 1054473" d="M4.9,16H56.17a1.9,1.9,0,0,1,1.9,1.9V46.383H3V17.9A1.9,1.9,0,0,1,4.9,16Z" transform="translate(-0.051 -0.708)" fill="#3780ea"/>
      <path id="Trazado_1054474" data-name="Trazado 1054474" d="M7,28H31.686V43.191H7Z" transform="translate(-0.253 -1.314)" fill="#896ff7"/>
      <path id="Trazado_1054475" data-name="Trazado 1054475" d="M40.989,57v3.8H22V57H40.989Z" transform="translate(-1.011 -2.779)" fill="#e8e5fb"/>
      <path id="Trazado_1054476" data-name="Trazado 1054476" d="M29,51h5.7v5.7H29Z" transform="translate(-1.364 -2.476)" fill="#8e95a3"/>
      <path id="Trazado_1054477" data-name="Trazado 1054477" d="M58.069,48.949V49.9a1.9,1.9,0,0,1-1.9,1.9H4.9A1.9,1.9,0,0,1,3,49.9V48H58.069Z" transform="translate(-0.051 -2.325)" fill="#e8e5fb"/>
      <path id="Trazado_1054478" data-name="Trazado 1054478" d="M21.7,13.848,16,16.7V11Z" transform="translate(-0.707 -0.455)" fill="#ec455a"/>
      <path id="Trazado_1054479" data-name="Trazado 1054479" d="M8,15.495V6H26.989V21.191H8Zm7.6.949,5.7-2.848-5.7-2.848Z" transform="translate(-0.303 -0.202)" fill="#78b9eb"/>
      <path id="Trazado_1054480" data-name="Trazado 1054480" d="M31.686,28,19.343,35.6,7,28Z" transform="translate(-0.253 -1.314)" fill="#b9b1f1"/>
      <path id="Trazado_1054481" data-name="Trazado 1054481" d="M36,7h6.646v7.6H36Z" transform="translate(-1.718 -0.253)" fill="#e8e5fb"/>
      <path id="Trazado_1054482" data-name="Trazado 1054482" d="M40.8,15l-.949,6.646H37V15Z" transform="translate(-1.769 -0.657)" fill="#c7bec5"/>
      <path id="Trazado_1054483" data-name="Trazado 1054483" d="M59.238,9.56A1.856,1.856,0,0,1,59.8,10.9a1.9,1.9,0,0,1-1.9,1.9H56V9h1.9a1.856,1.856,0,0,1,1.339.56Z" transform="translate(-2.729 -0.354)" fill="#ec455a"/>
      <path id="Trazado_1054484" data-name="Trazado 1054484" d="M55.343,3V18.191L43,14.394V6.8Z" transform="translate(-2.072 -0.051)" fill="#f6cc4f"/>
      <path id="Trazado_1054485" data-name="Trazado 1054485" d="M33,9h2.848v3.8H33Z" transform="translate(-1.567 -0.354)" fill="#ec455a"/>
      <path id="Trazado_1054486" data-name="Trazado 1054486" d="M37,26H54.09V37.394H37Z" transform="translate(-1.769 -1.213)" fill="#9e2849"/>
      <path id="Trazado_1054487" data-name="Trazado 1054487" d="M56.141,30V41.394H40V30H56.141Z" transform="translate(-1.92 -1.415)" fill="#ec455a"/>
      <path id="Trazado_1054488" data-name="Trazado 1054488" d="M56.12,14.343h-1.9v-.949h.949a2.848,2.848,0,1,0,0-5.7h-.949V2.949a.919.919,0,0,0-.389-.76A.941.941,0,0,0,53,2.038L40.786,5.8h-6.5a.949.949,0,0,0-.949.949V7.7h-1.9a.949.949,0,0,0-.949.949v3.8a.949.949,0,0,0,.949.949h1.9v.949h-5.7V5.8a.949.949,0,0,0-.949-.949H7.7a.949.949,0,0,0-.949.949v8.545h-1.9A2.857,2.857,0,0,0,2,17.191V47.574a2.857,2.857,0,0,0,2.848,2.848H26.686v2.848h-5.7a.949.949,0,0,0-.949.949v3.8a.949.949,0,0,0,.949.949H39.979a.949.949,0,0,0,.949-.949v-3.8a.949.949,0,0,0-.949-.949h-5.7V50.423H56.12a2.857,2.857,0,0,0,2.848-2.848V17.191a2.857,2.857,0,0,0-2.848-2.848ZM54.221,9.6h.949a.949.949,0,0,1,0,1.9h-.949ZM41.878,7.45,52.322,4.231V16.859L41.878,13.64ZM35.231,7.7h4.747v5.7H35.231Zm2.706,7.6-.684,4.747H36.181V15.292Zm-5.554-3.8V9.6h.949v1.9ZM8.646,6.747h17.09V20.04H8.646ZM39.029,55.17v1.9H21.939v-1.9Zm-10.444-1.9V50.423h3.8v2.848Zm28.484-5.7a.949.949,0,0,1-.949.949H4.848a.949.949,0,0,1-.949-.949v-.949h53.17Zm0-2.848H3.9V17.191a.949.949,0,0,1,.949-.949h1.9v4.747a.949.949,0,0,0,.949.949H26.686a.949.949,0,0,0,.949-.949V16.242h6.646v4.747a.949.949,0,0,0,.949.949H38.08a.949.949,0,0,0,.94-.816l.836-5.83h.93L53,19.052a.878.878,0,0,0,.275.038.964.964,0,0,0,.949-.949v-1.9h1.9a.949.949,0,0,1,.949.949Z" transform="translate(0 0)"/>
      <path id="Trazado_1054489" data-name="Trazado 1054489" d="M6.949,44.09H31.636a.949.949,0,0,0,.949-.949V27.949A.949.949,0,0,0,31.636,27H6.949A.949.949,0,0,0,6,27.949V43.141A.949.949,0,0,0,6.949,44.09Zm.949-1.9V29.648l10.9,6.706a.949.949,0,0,0,1,0l10.9-6.706V42.191ZM10.3,28.9H28.281l-8.989,5.532Z" transform="translate(-0.202 -1.263)"/>
      <path id="Trazado_1054490" data-name="Trazado 1054490" d="M36.949,38.293h1.9v2.848a.949.949,0,0,0,.949.949H55.939a.949.949,0,0,0,.949-.949V29.747a.949.949,0,0,0-.949-.949h-.949V25.949A.949.949,0,0,0,54.04,25H36.949a.949.949,0,0,0-.949.949V37.343A.949.949,0,0,0,36.949,38.293Zm18.04,1.9H40.747V30.7H54.989ZM37.9,26.9H53.09v1.9H39.8a.949.949,0,0,0-.949.949v6.646H37.9Z" transform="translate(-1.718 -1.162)"/>
      <path id="Trazado_1054491" data-name="Trazado 1054491" d="M43,33h1.9v1.9H43Z" transform="translate(-2.072 -1.567)"/>
      <path id="Trazado_1054492" data-name="Trazado 1054492" d="M47,33h6.646v1.9H47Z" transform="translate(-2.274 -1.567)"/>
      <path id="Trazado_1054493" data-name="Trazado 1054493" d="M43,37h3.8v1.9H43Z" transform="translate(-2.072 -1.769)"/>
      <path id="Trazado_1054494" data-name="Trazado 1054494" d="M49,37h4.747v1.9H49Z" transform="translate(-2.375 -1.769)"/>
      <path id="Trazado_1054495" data-name="Trazado 1054495" d="M15.45,17.454a.949.949,0,0,0,.924.042l5.7-2.848a.949.949,0,0,0,0-1.7l-5.7-2.848a.949.949,0,0,0-1.374.85v5.7A.949.949,0,0,0,15.45,17.454ZM16.9,12.486,19.523,13.8,16.9,15.11Z" transform="translate(-0.657 -0.404)"/>
    </g>
  </g>
</svg>
